<?xml version="1.0" standalone="no"?>
<!DOCTYPE svg PUBLIC "-//W3C//DTD SVG 20010904//EN"
 "http://www.w3.org/TR/2001/REC-SVG-20010904/DTD/svg10.dtd">
<svg version="1.0" xmlns="http://www.w3.org/2000/svg"
 width="609.000000pt" height="430.000000pt" viewBox="0 0 609.000000 430.000000"
 preserveAspectRatio="xMidYMid meet">

<g transform="translate(0.000000,430.000000) scale(0.100000,-0.100000)"
fill="#cccdee" stroke="none">
<path d="M368 4284 c-29 -13 -44 -29 -74 -87 -367 -689 -386 -1414 -65 -2376
157 -470 320 -809 567 -1181 161 -243 439 -586 502 -619 30 -16 162 -28 162
-15 0 5 -43 58 -95 118 -275 315 -515 677 -730 1101 -240 473 -372 880 -436
1341 -27 190 -32 573 -10 739 37 286 119 575 224 785 l32 65 55 -3 c85 -5 166
-29 276 -81 392 -187 699 -557 937 -1131 279 -672 406 -1480 407 -2581 l0
-286 25 -11 c14 -7 43 -12 65 -12 38 0 39 1 44 42 14 102 27 364 33 633 18
857 -117 1630 -397 2280 -132 308 -377 674 -595 890 -227 224 -452 350 -697
390 -116 19 -183 18 -230 -1z"/>
<path d="M4163 3579 c-313 -27 -597 -196 -828 -494 -87 -112 -108 -147 -171
-293 -168 -383 -284 -813 -338 -1252 -54 -434 -58 -938 -10 -1335 12 -107 19
-133 36 -147 25 -22 115 -24 144 -3 19 13 20 19 12 67 -68 416 -60 1107 17
1588 120 742 349 1253 684 1522 187 150 390 211 631 188 139 -13 232 -40 365
-104 266 -130 432 -314 717 -791 159 -265 332 -513 444 -634 102 -111 106
-153 19 -216 -84 -61 -146 -94 -237 -124 -124 -42 -216 -55 -388 -55 -341 0
-560 64 -794 233 -154 111 -341 341 -461 567 -173 327 -304 474 -420 474 -19
0 -35 -3 -35 -6 0 -3 22 -34 49 -68 80 -102 79 -87 22 -259 -237 -719 -341
-1390 -286 -1854 17 -145 28 -189 57 -233 39 -57 72 -75 138 -75 72 0 89 11
184 121 202 232 449 707 606 1166 l23 66 76 -53 c42 -29 109 -69 149 -89 39
-20 72 -40 72 -45 0 -22 -112 -277 -205 -466 -205 -417 -363 -668 -538 -851
-47 -50 -64 -75 -56 -80 7 -4 47 -10 89 -12 l76 -4 45 43 c64 63 187 219 251
319 148 231 352 623 468 898 42 99 45 103 69 97 140 -36 172 -39 381 -40 235
0 295 7 455 56 183 56 329 143 386 228 26 39 29 53 29 120 0 91 3 87 -140 241
-164 176 -226 259 -349 465 -200 335 -395 619 -494 722 -293 303 -594 431
-944 402z"/>
<path d="M682 3457 c-41 -19 -98 -171 -128 -340 -33 -185 -19 -559 31 -819 97
-506 389 -1201 681 -1621 146 -208 294 -384 364 -431 28 -18 101 -21 132 -5
60 32 84 210 75 559 -8 352 -55 670 -157 1078 -58 231 -82 308 -150 477 -100
251 -199 450 -314 630 -237 373 -415 530 -534 472z"/>
</g>
</svg>
